<?xml version="1.0" encoding="utf-8"?>
<!-- Generator: Adobe Illustrator 16.0.0, SVG Export Plug-In . SVG Version: 6.00 Build 0)  -->
<!DOCTYPE svg PUBLIC "-//W3C//DTD SVG 1.1//EN" "http://www.w3.org/Graphics/SVG/1.1/DTD/svg11.dtd">
<svg version="1.1" id="Layer_1" xmlns="http://www.w3.org/2000/svg" xmlns:xlink="http://www.w3.org/1999/xlink" x="0px" y="0px"
	 width="3199.18px" height="609.061px" viewBox="0 0 3199.18 609.061" enable-background="new 0 0 3199.18 609.061"
	 xml:space="preserve">
<g>
	<g>
		<linearGradient id="SVGID_1_" gradientUnits="userSpaceOnUse" x1="-203.8711" y1="-28.4277" x2="436.5338" y2="502.8974">
			<stop  offset="0" style="stop-color:#01589A"/>
			<stop  offset="0.2848" style="stop-color:#009FD8"/>
			<stop  offset="0.7939" style="stop-color:#009FD8"/>
			<stop  offset="1" style="stop-color:#01589A"/>
		</linearGradient>
		<path fill="url(#SVGID_1_)" d="M369.326,501.578c-58.598-2.67-126.395-60.615-182.291-127.154
			c3.504,19.775,6.881,34.691,10.504,55c46.021,89.307,104.965,170.545,154.336,165.885
			c55.358-5.307,109.983-70.418,175.105-141.152c10.424-11.355,20.925-22.861,31.58-34.494
			C491.895,465.371,428.599,504.185,369.326,501.578z"/>
		<linearGradient id="SVGID_2_" gradientUnits="userSpaceOnUse" x1="-19.7256" y1="-203.3325" x2="589.0361" y2="301.7393">
			<stop  offset="0" style="stop-color:#01589A"/>
			<stop  offset="0.2848" style="stop-color:#009FD8"/>
			<stop  offset="0.7939" style="stop-color:#009FD8"/>
			<stop  offset="1" style="stop-color:#01589A"/>
		</linearGradient>
		<path fill="url(#SVGID_2_)" d="M629.539,90.591c-52.513,125.922-100.243,250.53-150.111,364.961
			c26.692-11.938,53.638-27.1,81.475-43.619c39.068-69.939,79.409-172.031,130.805-261.035
			C657.151,113.338,667.581,123.477,629.539,90.591z"/>
		<linearGradient id="SVGID_3_" gradientUnits="userSpaceOnUse" x1="-45.2871" y1="-145.4116" x2="553.5427" y2="351.4199">
			<stop  offset="0" style="stop-color:#01589A"/>
			<stop  offset="0.2848" style="stop-color:#009FD8"/>
			<stop  offset="0.7939" style="stop-color:#009FD8"/>
			<stop  offset="1" style="stop-color:#01589A"/>
		</linearGradient>
		<path fill="url(#SVGID_3_)" d="M590.539,136.923c10.206-26.927,16.464-32.454,26.818-59.818
			C526.307,10.104,409.127-7.59,306.756,25.414C197.709,60.712,99.449,139.677,6.7,224.981c5.567,1.801,11.239,3.639,16.913,5.528
			C200.431,121.551,422.805,37.071,590.539,136.923z"/>
	</g>
	<g>
		<linearGradient id="SVGID_4_" gradientUnits="userSpaceOnUse" x1="210.7891" y1="1.0928" x2="582.5171" y2="401.173">
			<stop  offset="0" style="stop-color:#231F20"/>
			<stop  offset="0.2788" style="stop-color:#58595B"/>
			<stop  offset="0.7758" style="stop-color:#231F20"/>
			<stop  offset="1" style="stop-color:#404041"/>
		</linearGradient>
		<path fill="url(#SVGID_4_)" d="M555.206,165.59c-31.162,85.388-84.035,220.661-115.667,303.001
			c16.532-7.633,16.532-7.633,33.667-15.668c28.168-72.313,75.816-201.592,105.333-277.333
			C557.123,166.371,575.843,174.414,555.206,165.59z"/>
	</g>
	<g>
		<linearGradient id="SVGID_5_" gradientUnits="userSpaceOnUse" x1="19.3496" y1="112.9634" x2="475.2228" y2="485.3174">
			<stop  offset="0" style="stop-color:#231F20"/>
			<stop  offset="0.1928" style="stop-color:#252122"/>
			<stop  offset="0.2901" style="stop-color:#2C292A"/>
			<stop  offset="0.3658" style="stop-color:#373637"/>
			<stop  offset="0.4032" style="stop-color:#404041"/>
			<stop  offset="0.4251" style="stop-color:#3B3A3B"/>
			<stop  offset="0.5072" style="stop-color:#2E2B2C"/>
			<stop  offset="0.6018" style="stop-color:#252223"/>
			<stop  offset="0.7366" style="stop-color:#231F20"/>
			<stop  offset="0.8304" style="stop-color:#2A2627"/>
			<stop  offset="0.9709" style="stop-color:#3B3B3C"/>
			<stop  offset="1" style="stop-color:#404041"/>
		</linearGradient>
		<path fill="url(#SVGID_5_)" d="M153.531,169.159c9.135,56.103,21.939,130.805,30.695,184.383
			c16.324,10.424,24.076,14.449,40.313,23.332L198.178,153.12C175.912,159.368,175.361,160.645,153.531,169.159z"/>
		
			<linearGradient id="SVGID_6_" gradientUnits="userSpaceOnUse" x1="128.0371" y1="-41.7017" x2="591.292" y2="336.6816" gradientTransform="matrix(0.9969 -0.0783 0.0783 0.9969 -10.6464 3.172)">
			<stop  offset="0" style="stop-color:#58595B"/>
			<stop  offset="0.3758" style="stop-color:#231F20"/>
			<stop  offset="0.6364" style="stop-color:#404041"/>
			<stop  offset="1" style="stop-color:#231F20"/>
		</linearGradient>
		<path fill="url(#SVGID_6_)" d="M216.227,139.875c1.473,14.473,2.532,7.361,4,22c103.002-21.323,260.812-39.265,360.559-3.285
			c4.77-15.966,0,0,4.782-16.101C481.614,94.509,323.045,104.431,216.227,139.875z"/>
	</g>
</g>
<g>
	<polygon fill-rule="evenodd" clip-rule="evenodd" fill="#0478BB" points="450.254,287.916 450.254,296.5 450.254,344.812 
		408.416,368.964 366.576,393.121 324.738,368.964 317.305,364.673 	"/>
	<polygon fill-rule="evenodd" clip-rule="evenodd" fill="#06A8E0" points="415.612,364.808 408.416,368.964 366.576,393.121 
		324.738,368.964 282.901,344.812 282.901,296.5 282.901,288.187 	"/>
	<polygon fill-rule="evenodd" clip-rule="evenodd" fill="#0478BB" points="282.901,441.589 282.901,296.5 282.901,248.188 
		324.738,224.033 332.24,219.703 332.238,413.105 	"/>
	<polygon fill-rule="evenodd" clip-rule="evenodd" fill="#06A8E0" points="366.576,199.879 408.416,224.033 415.795,228.294 
		282.901,305.019 282.901,296.5 282.901,248.188 324.738,224.033 	"/>
	<polygon fill-rule="evenodd" clip-rule="evenodd" fill="#08A9E1" points="366.576,199.879 408.416,224.033 450.254,248.188 
		450.254,287.916 435.48,296.445 317.4,228.271 324.738,224.033 	"/>
	<polygon fill-rule="evenodd" clip-rule="evenodd" fill="#0279BB" points="401.038,219.774 408.416,224.033 450.254,248.188 
		450.254,287.916 401.038,316.33 	"/>
</g>
<g>
	<g>
		<path fill="#231F20" d="M233.685,211.617c-0.948,0.363-2.704,2.373-5.854-6.021c-2.423-6.455-1.677-11.453-2.071-12.526
			c-0.32-0.87-0.251-1.495-1.558-0.989c-3.713,1.438-8.899,7.396-9.773,7.761c-0.464,0.193-0.676,0.416-0.999-0.387
			c-0.357-0.888-0.375-5.035,0.084-6.161c0.309-0.758,6.985-4.711,14.137-7.385c8.53-3.189,16.585-4.449,17.023-3.064
			c0.411,1.296-1.278,4.962-1.857,5.159c-0.895,0.305-3.864-1.399-7.656-0.04c-3.212,1.151-1.774,6.928-0.828,9.609
			c2.644,7.491,6.71,10.155,6.893,10.681c0.223,0.642-1.632,1.153-2.284,1.394C236.835,210.42,235.781,210.815,233.685,211.617z"/>
		<path fill="#231F20" d="M276.444,197.699c-0.512,0.138-1.886,0.546-2.011,0.067c-0.039-0.149-0.017-0.318,0.041-0.46
			c1.2-2.97,1.881-6.465,1.134-9.434c-0.514-2.038-2.113-2.36-5.635-1.38c-5.31,1.477-10.541,4.62-9.541,8.064
			c0.622,2.137,1.991,4.39,3.956,5.779c0.127,0.09,0.295,0.266,0.329,0.385c0.119,0.416-1.133,0.666-1.539,0.789
			c-2.99,0.909-4.484,1.376-7.462,2.339c-1.419,0.459-4.071-8.04-4.467-9.309c-0.672-2.154-3.529-15.146-0.956-15.962
			c2.918-0.925,4.379-1.375,7.309-2.252c0.323-0.097,1.594-0.571,1.693-0.215c0.108,0.386-2.305,5.792-1.394,8.94
			c0.215,0.743,0.893,1.31,1.684,1.072c1.633-0.492,1.371-1.441,8.583-3.459c2.599-0.727,4.754-0.952,4.435-2.21
			c-0.722-2.847-6.563-5.83-6.666-6.218c-0.103-0.389,1.547-0.75,1.871-0.839c2.836-0.78,4.256-1.158,7.102-1.893
			c2.063-0.532,6.739,7.482,8.236,13.893c0.337,1.444,2.327,9.962,0.683,10.376C280.87,196.516,279.394,196.901,276.444,197.699z"/>
		<path fill="#231F20" d="M292.788,193.61c-2.721,0.689-2.288-0.65-3.741-6.619c-0.959-3.938-0.963-18.691,0.62-19.046
			c8.608-1.928,12.936-2.79,21.606-4.309c0.659-0.115,2.627-0.547,2.721,0.064c0.037,0.245-2.781,5.124-3.489,5.251
			c-0.924,0.165-2.804-0.998-8.139,0.052c-3.756,0.739-7.472,2.827-6.89,5.738c0.127,0.637,0.561,1.681,2.063,1.365
			c1.716-0.361,5.261-2.581,9.794-3.43c0.647-0.122,2.451-0.328,2.538,0.19c0.005,0.031-2.146,5.555-2.786,5.677
			c-0.532,0.102-2.669-0.119-4.745,0.299c-2.717,0.546-6.423,2.511-5.815,5.51c0.491,2.424,3.036,3.689,7.426,2.806
			c5.177-1.042,8.04-3.618,9.304-3.843c0.79-0.141,5.124,4.414,5.171,4.72c0.09,0.58-1.229,0.679-1.854,0.787
			C307.019,190.474,302.258,191.431,292.788,193.61z"/>
		<path fill="#231F20" d="M354.69,158.101c9.108-0.732,11.163,2.921,11.241,4.744c0.355,8.278-20.609,11.174-20.258,15.053
			c0.234,2.586,2.41,6.157,2.427,6.341c0.033,0.369-1.18,0.398-1.546,0.437c-2.789,0.289-4.183,0.445-6.968,0.778
			c-1.308,0.157-2.816,0.937-4.109-10.584c-1.703-15.177,1.244-14.979,2.185-15.089C344.463,158.984,347.87,158.649,354.69,158.101z
			 M357.095,164.425c-0.133-2.128-3.487-2.588-6.791-2.289c-3.965,0.359-7.146,1.076-6.469,8.123
			c0.07,0.735,0.239,1.401,1.804,1.241C348.445,171.211,357.233,166.646,357.095,164.425z"/>
		<path fill="#231F20" d="M387.068,156.62c10.356-0.116,12.877,3.188,12.798,5.814c-0.149,4.943-8.325,6.401-8.336,7.267
			s9.577,4.998,9.341,12.292c-0.011,0.34-0.222,0.396-1.327,0.378c-2.379-0.039-3.568-0.051-5.947-0.058
			c-0.946-0.002-2.579,0.094-2.574-0.4c0.032-3.491-4.207-9.749-7.329-9.69c-1.616,0.031-5.521,1.407-5.489,3.138
			c0.043,2.349,2.069,6.527,2.073,6.743c0.008,0.525-1.312,0.409-1.838,0.426c-2.441,0.076-3.661,0.123-6.102,0.232
			c-1.315,0.059-2.873,0.726-3.312-10.859c-0.578-15.261,2.344-14.845,3.29-14.885C378.215,156.766,381.166,156.686,387.068,156.62z
			 M390.953,162.9c0.021-1.948-3.231-2.648-6.215-2.6c-5.027,0.082-7.192,1.221-7.068,6.539c0.015,0.646,0.09,1.882,1.719,1.836
			C381.232,168.623,390.922,165.744,390.953,162.9z"/>
		<path fill="#231F20" d="M417.822,183.511c-10.61-0.612-14.604-5.085-14.4-10.43c0.302-7.938,8.681-16.653,19.09-15.982
			s17.36,10.361,16.438,18.252c-0.622,5.313-5.274,9.231-15.878,8.493C420.971,183.698,419.924,183.632,417.822,183.511z
			 M430.331,173.86c0.665-6.8-4.524-11.531-8.215-11.768c-3.689-0.237-9.56,3.786-9.95,10.607c-0.207,3.611,3.069,5.123,8.703,5.482
			C426.506,178.542,429.979,177.46,430.331,173.86z"/>
		<path fill="#231F20" d="M453.104,186.497c-0.994-0.138-3.475,0.78-2.192-8.093c0.986-6.823,4.017-10.847,4.188-11.978
			c0.138-0.917,0.499-1.432-0.872-1.616c-3.895-0.523-11.202,2.208-12.13,2.108c-0.49-0.053-0.78,0.042-0.677-0.818
			c0.115-0.952,2.074-4.596,3.004-5.363c0.626-0.516,8.264-0.775,15.731,0.314c8.906,1.3,16.522,4.067,16.241,5.491
			c-0.264,1.333-3.491,3.736-4.089,3.631c-0.925-0.162-2.688-3.083-6.626-3.712c-3.338-0.533-4.851,5.222-5.313,8.028
			c-1.291,7.839,0.957,12.128,0.863,12.677c-0.115,0.67-1.967,0.227-2.646,0.124C456.395,186.959,455.299,186.8,453.104,186.497z"/>
		<path fill="#231F20" d="M476.659,190.406c-2.766-0.473-1.824-1.523-0.733-7.57c0.72-3.99,6.695-17.476,8.287-17.158
			c8.652,1.729,12.965,2.696,21.55,4.836c0.653,0.163,2.639,0.569,2.477,1.166c-0.064,0.239-4.642,3.551-5.343,3.378
			c-0.917-0.225-2.171-2.055-7.488-3.262c-3.743-0.85-7.992-0.446-8.641,2.45c-0.142,0.633-0.17,1.762,1.332,2.083
			c1.718,0.366,5.867-0.223,10.372,0.843c0.644,0.152,2.382,0.698,2.251,1.207c-0.007,0.03-4.225,4.202-4.861,4.054
			c-0.53-0.124-2.401-1.193-4.474-1.654c-2.712-0.604-6.9-0.311-7.562,2.676c-0.534,2.415,1.28,4.603,5.663,5.578
			c5.166,1.149,8.844-0.039,10.097,0.27c0.783,0.192,2.914,6.119,2.833,6.417c-0.153,0.567-1.406,0.121-2.024-0.035
			C490.945,193.31,486.194,192.253,476.659,190.406z"/>
		<path fill="#231F20" d="M507.269,184.902c1.782-6.468,10.405-11.941,23.507-7.897c4.689,1.447,11.494,4.917,10.381,8.064
			c-0.599,1.69-3.047,1.932-6.38,0.852c-2.169-0.703,1.692-2.563-5.09-4.659c-7.797-2.41-12.45,1.124-13.549,4.829
			c-1.679,5.661,4.37,9.869,8.849,11.256c8.389,2.599,10.572-1.343,11.037-1.187c0.725,0.243,0.313,2.715,0.21,3.006
			c-1.523,4.313-8.155,4.861-15.283,2.698C509.395,198.355,505.61,190.923,507.269,184.902z"/>
	</g>
</g>
<g display="none">
	<linearGradient id="SVGID_7_" gradientUnits="userSpaceOnUse" x1="362.9902" y1="288.7808" x2="383.8545" y2="288.7808">
		<stop  offset="0" style="stop-color:#231F20"/>
		<stop  offset="0.1928" style="stop-color:#252122"/>
		<stop  offset="0.2901" style="stop-color:#2C292A"/>
		<stop  offset="0.3658" style="stop-color:#373637"/>
		<stop  offset="0.4032" style="stop-color:#404041"/>
		<stop  offset="0.4251" style="stop-color:#3B3A3B"/>
		<stop  offset="0.5072" style="stop-color:#2E2B2C"/>
		<stop  offset="0.6018" style="stop-color:#252223"/>
		<stop  offset="0.7366" style="stop-color:#231F20"/>
		<stop  offset="0.8304" style="stop-color:#2A2627"/>
		<stop  offset="0.9709" style="stop-color:#3B3B3C"/>
		<stop  offset="1" style="stop-color:#404041"/>
	</linearGradient>
	<polygon display="inline" fill="url(#SVGID_7_)" points="383.854,294.724 376.369,293.871 371.424,299.552 369.922,292.169 
		362.99,289.22 369.548,285.513 370.21,278.009 375.764,283.099 383.105,281.41 379.98,288.265 	"/>
	<defs>
		<filter id="Adobe_OpacityMaskFilter" filterUnits="userSpaceOnUse" x="339.026" y="268.612" width="55.479" height="54.964">
			
				<feColorMatrix  type="matrix" values="-1 0 0 0 1  0 -1 0 0 1  0 0 -1 0 1  0 0 0 1 0" color-interpolation-filters="sRGB" result="source"/>
			<feFlood  style="flood-color:white;flood-opacity:1" result="back"/>
			<feBlend  in="source" in2="back" mode="normal"/>
		</filter>
	</defs>
	<mask maskUnits="userSpaceOnUse" x="339.026" y="268.612" width="55.479" height="54.964" id="SVGID_8_" display="inline">
		<g filter="url(#Adobe_OpacityMaskFilter)">
			<ellipse fill="#FFFFFF" cx="374.636" cy="288.533" rx="27.74" ry="27.482"/>
		</g>
	</mask>
	<linearGradient id="SVGID_9_" gradientUnits="userSpaceOnUse" x1="339.0264" y1="296.0933" x2="394.5059" y2="296.0933">
		<stop  offset="0" style="stop-color:#231F20"/>
		<stop  offset="0.1928" style="stop-color:#252122"/>
		<stop  offset="0.2901" style="stop-color:#2C292A"/>
		<stop  offset="0.3658" style="stop-color:#373637"/>
		<stop  offset="0.4032" style="stop-color:#404041"/>
		<stop  offset="0.4251" style="stop-color:#3B3A3B"/>
		<stop  offset="0.5072" style="stop-color:#2E2B2C"/>
		<stop  offset="0.6018" style="stop-color:#252223"/>
		<stop  offset="0.7366" style="stop-color:#231F20"/>
		<stop  offset="0.8304" style="stop-color:#2A2627"/>
		<stop  offset="0.9709" style="stop-color:#3B3B3C"/>
		<stop  offset="1" style="stop-color:#404041"/>
	</linearGradient>
	<ellipse display="inline" mask="url(#SVGID_8_)" fill="url(#SVGID_9_)" cx="366.766" cy="296.095" rx="27.74" ry="27.48"/>
</g>
<g>
	<path fill="#01589A" d="M809.808,355.439c-7.66,0-25.399,11.855-25.399-74.092c0-66.091,17.739-108.176,17.739-119.142
		c0-8.891,2.017-14.226-8.063-14.226c-28.625,0-79.021,34.083-85.875,34.083c-3.629,0-5.645,1.186-5.645-7.113
		c0-9.188,10.886-45.938,16.933-54.236c4.032-5.631,58.46-16.301,112.888-16.301c64.91,0,122.563,12.744,122.563,26.674
		c0,13.04-19.755,41.195-24.189,41.195c-6.854,0-23.384-24.599-52.412-24.599c-24.594,0-28.625,56.607-28.625,83.873
		c0,76.168,22.174,113.51,22.174,118.846c0,6.52-14.514,5.037-19.755,5.037H809.808z"/>
	<path fill="#01589A" d="M1150.482,355.439c-4.031,0-14.917,0.297-14.917-4.445c0-1.481,0.403-2.963,1.21-4.148
		c14.11-27.267,25.803-55.125,25.803-84.466c0-20.153-10.886-26.97-37.898-26.97c-40.72,0-84.262,14.226-84.262,48.605
		c0,21.339,5.241,44.456,16.529,64.017c0.807,1.186,1.613,3.26,1.613,4.445c0,4.148-9.676,2.963-12.901,2.963h-59.266
		c-11.289,0-11.289-85.354-11.289-98.099c0-21.635,8.063-148.482,27.416-148.482h54.83c2.419,0,12.096-0.889,12.096,2.667
		c0,3.853-27.416,46.827-27.416,78.242c0,7.41,3.629,14.522,9.676,14.522c12.499,0,12.499-8.891,67.329-8.891
		c19.756,0,35.479,3.26,35.479-9.188c0-28.155-35.479-70.537-35.479-74.389c0-3.853,12.096-2.964,14.515-2.964h52.814
		c15.32,0,35.076,85.355,35.076,148.482c0,14.226,0,98.099-12.901,98.099H1150.482z"/>
	<path fill="#01589A" d="M1278.691,355.439c-21.368,0.594-14.918-9.779-16.934-69.943c0-39.713,22.175-176.637,33.866-176.637
		h158.848c4.839,0,19.353-0.889,19.353,5.038c0,2.371-25.803,43.863-31.044,43.863c-6.854,0-18.949-13.93-58.459-13.93
		c-27.819,0-57.25,12.151-57.25,40.603c0,6.224,1.612,16.893,12.901,16.893c12.901,0,41.526-13.929,75.393-13.929
		c4.838,0,18.143,1.186,18.143,6.224c0,0.296-22.578,48.605-27.416,48.605c-4.031,0-19.352-5.927-35.075-5.927
		c-20.562,0-50.396,10.965-50.396,40.306c0,23.709,16.934,40.899,50.8,40.899c39.913,0,64.507-19.561,74.183-19.561
		c6.048,0,33.06,50.088,33.06,53.051c0,5.631-10.079,4.445-14.917,4.445H1278.691z"/>
	<path fill="#01589A" d="M1770.952,108.858c66.12,0,79.828,35.268,79.828,52.754c0,79.428-157.639,90.986-157.639,128.329
		c0,24.896,14.11,61.053,14.11,62.831c0,3.557-9.272,2.667-12.095,2.667h-53.621c-10.08,0-22.175,5.631-22.175-105.508
		c0-146.407,20.965-141.073,27.818-141.073H1770.952z M1785.467,171.096c0-20.449-24.19-27.266-48.38-27.266
		c-29.028,0-52.815,3.26-52.412,71.426c0,7.113,0.807,13.633,12.498,13.633C1718.138,228.889,1785.467,192.435,1785.467,171.096z"/>
	<path fill="#01589A" d="M2005.595,108.858c74.989,0,93.938,30.23,93.938,55.421c0,47.419-60.476,61.942-60.476,70.24
		s72.57,47.123,72.57,117.066c0,3.261-1.612,3.853-10.079,3.853h-45.559c-7.257,0-19.755,0.89-19.755-3.853
		c0-33.489-32.253-93.653-55.637-93.653c-12.096,0-41.526,12.151-41.526,28.748c0,22.524,14.917,63.127,14.917,65.201
		c0,5.039-10.079,3.557-14.111,3.557h-46.767c-10.079,0-22.175,5.631-22.175-105.508c0-146.407,20.965-141.073,27.818-141.073
		H2005.595z M2034.22,169.318c0-18.671-23.787-25.488-45.558-25.488c-36.688,0-52.815,9.78-52.412,61.053
		c0,6.224,0.403,18.079,12.498,18.079C1962.456,222.961,2034.22,196.584,2034.22,169.318z"/>
	<path fill="#01589A" d="M2241.847,359.885c-81.439,0-113.29-42.974-113.29-94.247c0-76.167,58.057-161.226,133.448-161.226
		c75.393,0,133.449,85.059,133.449,161.226c0,51.273-31.851,94.247-113.29,94.247H2241.847z M2330.141,259.119
		c0-65.498-41.123-106.694-68.136-106.694c-27.012,0-68.135,41.196-68.135,106.694c0,34.676,25.399,48.012,68.135,48.012
		C2304.741,307.13,2330.141,293.794,2330.141,259.119z"/>
	<path fill="#01589A" d="M2512.772,355.439c-7.66,0-25.399,11.855-25.399-74.092c0-66.091,17.739-108.176,17.739-119.142
		c0-8.891,2.017-14.226-8.063-14.226c-28.625,0-79.021,34.083-85.875,34.083c-3.629,0-5.645,1.186-5.645-7.113
		c0-9.188,10.886-45.938,16.933-54.236c4.032-5.631,58.46-16.301,112.888-16.301c64.91,0,122.563,12.744,122.563,26.674
		c0,13.04-19.755,41.195-24.189,41.195c-6.854,0-23.384-24.599-52.412-24.599c-24.594,0-28.625,56.607-28.625,83.873
		c0,76.168,22.174,113.51,22.174,118.846c0,6.52-14.514,5.037-19.755,5.037H2512.772z"/>
	<path fill="#01589A" d="M2695.003,355.439c-21.368,0.594-14.918-9.779-16.934-69.943c0-39.713,22.175-176.637,33.866-176.637
		h158.849c4.838,0,19.352-0.889,19.352,5.038c0,2.371-25.803,43.863-31.044,43.863c-6.854,0-18.949-13.93-58.459-13.93
		c-27.819,0-57.25,12.151-57.25,40.603c0,6.224,1.612,16.893,12.901,16.893c12.901,0,41.526-13.929,75.393-13.929
		c4.838,0,18.143,1.186,18.143,6.224c0,0.296-22.578,48.605-27.416,48.605c-4.031,0-19.352-5.927-35.075-5.927
		c-20.562,0-50.396,10.965-50.396,40.306c0,23.709,16.934,40.899,50.8,40.899c39.913,0,64.507-19.561,74.183-19.561
		c6.048,0,33.06,50.088,33.06,53.051c0,5.631-10.079,4.445-14.917,4.445H2695.003z"/>
	<path fill="#01589A" d="M2908.677,238.965c0-64.313,49.187-134.553,147.156-134.553c35.075,0,89.101,10.966,89.101,42.974
		c0,17.189-16.127,26.97-41.526,26.97c-16.53,0,5.644-27.859-45.559-27.859c-58.862,0-83.858,44.159-83.858,81.206
		c0,56.607,52.411,79.427,87.487,79.427c65.716,0,71.36-43.27,74.989-43.27c5.645,0,8.869,23.709,8.869,26.674
		c0,43.862-45.961,69.351-102.404,69.351C2951.413,359.885,2908.677,298.833,2908.677,238.965z"/>
</g>
<g>
	<path fill="#01589A" d="M769.07,426.477c22.286,0,26.906,11.888,26.906,17.782c0,26.773-53.135,30.669-53.135,43.256
		c0,8.393,4.757,20.58,4.757,21.18c0,1.198-3.126,0.898-4.077,0.898h-18.074c-3.396,0-7.474,1.898-7.474-35.564
		c0-49.35,7.066-47.552,9.377-47.552H769.07z M773.962,447.457c0-6.894-8.153-9.191-16.308-9.191c-9.784,0-17.802,1.1-17.666,24.076
		c0,2.396,0.271,4.595,4.213,4.595C751.268,466.936,773.962,454.648,773.962,447.457z"/>
	<path fill="#01589A" d="M848.163,426.477c25.276,0,31.663,10.19,31.663,18.681c0,15.984-20.384,20.879-20.384,23.677
		c0,2.797,24.461,15.884,24.461,39.46c0,1.1-0.544,1.299-3.397,1.299H865.15c-2.446,0-6.659,0.3-6.659-1.299
		c0-11.289-10.872-31.568-18.754-31.568c-4.076,0-13.997,4.096-13.997,9.69c0,7.593,5.028,21.278,5.028,21.978
		c0,1.699-3.397,1.199-4.756,1.199h-15.765c-3.396,0-7.474,1.898-7.474-35.564c0-49.35,7.066-47.552,9.377-47.552H848.163z
		 M857.812,446.857c0-6.294-8.018-8.592-15.356-8.592c-12.366,0-17.802,3.297-17.666,20.579c0,2.099,0.136,6.095,4.213,6.095
		C833.622,464.939,857.812,456.047,857.812,446.857z"/>
	<path fill="#01589A" d="M927.799,511.091c-27.451,0-38.187-14.484-38.187-31.768c0-25.674,19.568-54.346,44.981-54.346
		c25.412,0,44.98,28.672,44.98,54.346c0,17.283-10.735,31.768-38.187,31.768H927.799z M957.56,477.126
		c0-22.078-13.861-35.965-22.966-35.965c-9.105,0-22.967,13.887-22.967,35.965c0,11.688,8.562,16.184,22.967,16.184
		C948.998,493.31,957.56,488.814,957.56,477.126z"/>
	<path fill="#01589A" d="M1054.727,426.477c1.631,0,6.523-0.3,6.523,1.698c0,0.799-8.697,14.785-10.464,14.785
		c-2.311,0-6.387-4.695-19.705-4.695c-9.376,0-19.297,4.096-19.297,13.686c0,5.994,0.408,7.893,4.349,7.893
		c8.833,0,9.648-4.596,27.587-4.596c1.495,0,4.62,0,4.62,1.699c0,0.499-5.3,16.084-7.61,16.084c-1.358,0-5.027-1.399-10.327-1.399
		c-11.959,0-17.938,5.095-17.938,13.286c0,8.691,5.436,22.678,5.3,23.777c0.136,1.198-3.262,0.898-4.484,0.898h-16.036
		c-3.397,0-7.474,1.898-7.474-35.564c0-49.35,7.066-47.552,9.377-47.552H1054.727z"/>
	<path fill="#01589A" d="M1069.948,509.593c-7.202,0.199-5.027-3.297-5.707-23.576c0-13.387,7.474-59.54,11.415-59.54h53.543
		c1.63,0,6.522-0.3,6.522,1.698c0,0.799-8.697,14.785-10.464,14.785c-2.311,0-6.387-4.695-19.705-4.695
		c-9.376,0-19.297,4.096-19.297,13.686c0,2.099,0.544,5.695,4.349,5.695c4.349,0,13.997-4.695,25.412-4.695
		c1.631,0,6.115,0.399,6.115,2.098c0,0.1-7.609,16.383-9.24,16.383c-1.359,0-6.523-1.998-11.823-1.998
		c-6.931,0-16.986,3.697-16.986,13.587c0,7.992,5.707,13.786,17.122,13.786c13.454,0,21.743-6.594,25.005-6.594
		c2.038,0,11.144,16.883,11.144,17.883c0,1.897-3.397,1.498-5.028,1.498H1069.948z"/>
	<path fill="#01589A" d="M1182.063,438.464c-6.795,0-15.492,2.498-15.492,8.293c0,7.191,13.454,9.989,20.928,11.887
		c28.538,6.994,34.382,17.084,34.382,26.574c0,11.588-11.279,25.873-39.953,25.873c-19.297,0-38.866-7.592-38.866-23.477
		c0-8.49,6.931-13.486,8.29-13.486c2.31,0,0,20.28,29.217,20.28c10.328,0,19.297-3.297,19.297-9.491
		c0-7.292-12.23-10.289-20.112-12.087c-29.761-6.794-33.022-16.684-33.022-25.175c0-8.392,7.746-22.678,35.333-22.678
		c19.705,0,33.702,7.693,33.702,10.59c0,2.797-7.066,11.889-10.872,11.889C1201.495,447.457,1196.195,438.464,1182.063,438.464z"/>
	<path fill="#01589A" d="M1269.854,438.464c-6.795,0-15.492,2.498-15.492,8.293c0,7.191,13.454,9.989,20.928,11.887
		c28.538,6.994,34.382,17.084,34.382,26.574c0,11.588-11.279,25.873-39.953,25.873c-19.297,0-38.866-7.592-38.866-23.477
		c0-8.49,6.931-13.486,8.29-13.486c2.31,0,0,20.28,29.217,20.28c10.328,0,19.297-3.297,19.297-9.491
		c0-7.292-12.23-10.289-20.112-12.087c-29.761-6.794-33.022-16.684-33.022-25.175c0-8.392,7.746-22.678,35.333-22.678
		c19.705,0,33.702,7.693,33.702,10.59c0,2.797-7.066,11.889-10.872,11.889C1289.286,447.457,1283.986,438.464,1269.854,438.464z"/>
	<path fill="#01589A" d="M1330.058,509.593c-3.397,0-7.474,1.898-7.474-35.564c0-49.35,7.066-47.552,9.376-47.552h14.677
		c1.767,0,5.164-0.3,5.164,1.599c0,0.998-7.202,17.682-7.202,36.963c0,25.574,6.795,42.057,6.795,43.455c0,1-0.815,1.1-2.039,1.1
		h-2.718H1330.058z"/>
	<path fill="#01589A" d="M1400.181,511.091c-27.451,0-38.187-14.484-38.187-31.768c0-25.674,19.568-54.346,44.981-54.346
		c25.412,0,44.98,28.672,44.98,54.346c0,17.283-10.735,31.768-38.187,31.768H1400.181z M1429.941,477.126
		c0-22.078-13.861-35.965-22.966-35.965c-9.105,0-22.967,13.887-22.967,35.965c0,11.688,8.562,16.184,22.967,16.184
		C1421.38,493.31,1429.941,488.814,1429.941,477.126z"/>
	<path fill="#01589A" d="M1523.168,509.593c-9.377,0-0.951-6.193-22.15-37.762c-1.768-2.697-13.726-19.48-18.074-19.48
		c-3.397,0-2.446,10.889-2.446,12.887c0,28.172,5.571,38.361,5.571,43.457c0,1.298-2.582,0.898-3.805,0.898h-12.639
		c-3.396,0-7.474,1.898-7.474-35.564c0-49.35,7.066-47.552,9.377-47.552h10.735c5.164,0,15.492,7.992,40.904,42.558
		c0.407,0.499,1.087,1.798,2.311,1.798c1.358,0,1.087-4.296,1.087-5.694c0-18.682-6.931-35.265-6.931-37.563
		c0-1.398,2.989-1.099,5.571-1.099h10.328c2.99,0,9.377-1.798,9.377,47.552c0,37.463-4.077,35.564-7.475,35.564H1523.168z"/>
	<path fill="#01589A" d="M1616.938,509.593c-1.223,0-5.164,0.3-5.164-1.199c0-2.797,10.464-12.787,10.464-24.176
		c0-4.495-5.844-6.193-11.959-6.193c-12.366,0-32.071,1.599-32.071,12.987c0,7.892,8.834,16.384,8.834,17.882
		c0,0.6-0.815,0.699-2.582,0.699h-19.434c-6.931,0-8.833-8.99-8.833-21.979c0-42.756,40.361-62.637,46.34-62.637
		c4.485,0,39.546,14.286,39.546,60.64c0,26.673-5.844,23.976-9.921,23.976H1616.938z M1581.198,465.238
		c0,1.199,0.951,1.898,2.582,1.898c2.446,0,15.628-2.598,27.587-2.598c4.756,0,6.931-0.5,6.931-3.297
		c0-6.193-10.057-19.18-15.221-19.18C1595.739,442.062,1581.198,457.945,1581.198,465.238z"/>
	<path fill="#01589A" d="M1659.069,509.593c-7.202,0.199-5.027-3.297-5.707-23.576c0-13.387,7.474-59.54,11.415-59.54h21.607
		c0.951,0,2.582,0.2,2.582,1.998c0,2.198-15.764,23.677-15.764,51.248c0,13.786,8.153,17.083,15.628,17.083
		c12.502,0,20.112-8.491,23.51-8.491c2.582,0,7.882,19.28,7.882,19.78c0,1.998-4.213,1.498-5.844,1.498H1659.069z"/>
	<path fill="#01589A" d="M1797.006,509.593c-2.582,0-8.562,3.996-8.562-24.975c0-22.277,5.979-36.463,5.979-40.16
		c0-2.996,0.679-4.795-2.719-4.795c-9.648,0-26.635,11.488-28.945,11.488c-1.223,0-1.902,0.4-1.902-2.397
		c0-3.097,3.669-15.484,5.708-18.281c1.358-1.898,19.704-5.495,38.05-5.495c21.879,0,41.313,4.297,41.313,8.992
		c0,4.395-6.659,13.885-8.154,13.885c-2.31,0-7.882-8.291-17.666-8.291c-8.289,0-9.648,19.08-9.648,28.271
		c0,25.674,7.475,38.262,7.475,40.06c0,2.198-4.893,1.698-6.659,1.698H1797.006z"/>
	<path fill="#01589A" d="M1898.113,426.477c25.276,0,31.663,10.19,31.663,18.681c0,15.984-20.384,20.879-20.384,23.677
		c0,2.797,24.461,15.884,24.461,39.46c0,1.1-0.544,1.299-3.397,1.299h-15.355c-2.446,0-6.659,0.3-6.659-1.299
		c0-11.289-10.872-31.568-18.754-31.568c-4.076,0-13.997,4.096-13.997,9.69c0,7.593,5.028,21.278,5.028,21.978
		c0,1.699-3.397,1.199-4.756,1.199h-15.765c-3.397,0-7.474,1.898-7.474-35.564c0-49.35,7.066-47.552,9.377-47.552H1898.113z
		 M1907.762,446.857c0-6.294-8.018-8.592-15.356-8.592c-12.366,0-17.802,3.297-17.666,20.579c0,2.099,0.136,6.095,4.213,6.095
		C1883.572,464.939,1907.762,456.047,1907.762,446.857z"/>
	<path fill="#01589A" d="M2001.396,509.593c-1.223,0-5.164,0.3-5.164-1.199c0-2.797,10.464-12.787,10.464-24.176
		c0-4.495-5.844-6.193-11.959-6.193c-12.366,0-32.071,1.599-32.071,12.987c0,7.892,8.834,16.384,8.834,17.882
		c0,0.6-0.815,0.699-2.582,0.699h-19.434c-6.931,0-8.833-8.99-8.833-21.979c0-42.756,40.361-62.637,46.34-62.637
		c4.485,0,39.546,14.286,39.546,60.64c0,26.673-5.844,23.976-9.921,23.976H2001.396z M1965.655,465.238
		c0,1.199,0.951,1.898,2.582,1.898c2.446,0,15.628-2.598,27.587-2.598c4.756,0,6.931-0.5,6.931-3.297
		c0-6.193-10.057-19.18-15.221-19.18C1980.196,442.062,1965.655,457.945,1965.655,465.238z"/>
	<path fill="#01589A" d="M2046.923,509.593c-3.397,0-7.474,1.898-7.474-35.564c0-49.35,7.066-47.552,9.376-47.552h14.677
		c1.767,0,5.164-0.3,5.164,1.599c0,0.998-7.202,17.682-7.202,36.963c0,25.574,6.795,42.057,6.795,43.455c0,1-0.815,1.1-2.039,1.1
		h-2.718H2046.923z"/>
	<path fill="#01589A" d="M2143.273,509.593c-9.377,0-0.951-6.193-22.15-37.762c-1.768-2.697-13.726-19.48-18.074-19.48
		c-3.397,0-2.446,10.889-2.446,12.887c0,28.172,5.571,38.361,5.571,43.457c0,1.298-2.582,0.898-3.805,0.898h-12.639
		c-3.396,0-7.474,1.898-7.474-35.564c0-49.35,7.066-47.552,9.377-47.552h10.735c5.164,0,15.492,7.992,40.904,42.558
		c0.407,0.499,1.087,1.798,2.311,1.798c1.358,0,1.087-4.296,1.087-5.694c0-18.682-6.931-35.265-6.931-37.563
		c0-1.398,2.989-1.099,5.571-1.099h10.328c2.99,0,9.377-1.798,9.377,47.552c0,37.463-4.077,35.564-7.475,35.564H2143.273z"/>
	<path fill="#01589A" d="M2187.715,509.593c-3.397,0-7.474,1.898-7.474-35.564c0-49.35,7.066-47.552,9.376-47.552h14.677
		c1.767,0,5.164-0.3,5.164,1.599c0,0.998-7.202,17.682-7.202,36.963c0,25.574,6.795,42.057,6.795,43.455c0,1-0.815,1.1-2.039,1.1
		h-2.718H2187.715z"/>
	<path fill="#01589A" d="M2284.065,509.593c-9.377,0-0.951-6.193-22.151-37.762c-1.767-2.697-13.725-19.48-18.073-19.48
		c-3.397,0-2.446,10.889-2.446,12.887c0,28.172,5.571,38.361,5.571,43.457c0,1.298-2.582,0.898-3.805,0.898h-12.639
		c-3.397,0-7.474,1.898-7.474-35.564c0-49.35,7.066-47.552,9.377-47.552h10.735c5.164,0,15.492,7.992,40.904,42.558
		c0.407,0.499,1.087,1.798,2.311,1.798c1.358,0,1.087-4.296,1.087-5.694c0-18.682-6.931-35.265-6.931-37.563
		c0-1.398,2.989-1.099,5.571-1.099h10.328c2.99,0,9.377-1.798,9.377,47.552c0,37.463-4.077,35.564-7.475,35.564H2284.065z"/>
	<path fill="#01589A" d="M2316.005,472.831c0-23.577,17.802-47.853,50.281-47.853c11.822,0,30.032,3.697,30.032,14.486
		c0,5.794-5.436,9.09-13.997,9.09c-5.571,0,1.902-9.391-15.356-9.391c-21.471,0-28.945,17.883-28.945,31.769
		c0,10.89,4.213,22.378,22.016,22.378c8.425,0,17.53-2.598,17.53-9.591c0-8.092-10.736-8.791-10.736-11.388
		c0-1.299,23.374-7.493,25.005-7.493c2.718,0,5.844,24.376,5.844,27.372c0,13.087-17.666,18.881-34.518,18.881
		C2331.633,511.091,2316.005,495.108,2316.005,472.831z"/>
	<path fill="#01589A" d="M2457.474,509.593c-3.397,0-7.474,1.898-7.474-35.564c0-49.35,7.066-47.552,9.376-47.552h14.677
		c1.767,0,5.164-0.3,5.164,1.599c0,0.998-7.202,17.682-7.202,36.963c0,25.574,6.795,42.057,6.795,43.455c0,1-0.815,1.1-2.039,1.1
		h-2.718H2457.474z"/>
	<path fill="#01589A" d="M2553.825,509.593c-9.377,0-0.951-6.193-22.151-37.762c-1.767-2.697-13.725-19.48-18.073-19.48
		c-3.397,0-2.446,10.889-2.446,12.887c0,28.172,5.571,38.361,5.571,43.457c0,1.298-2.582,0.898-3.805,0.898h-12.639
		c-3.397,0-7.474,1.898-7.474-35.564c0-49.35,7.066-47.552,9.377-47.552h10.735c5.164,0,15.492,7.992,40.904,42.558
		c0.407,0.499,1.087,1.798,2.311,1.798c1.358,0,1.087-4.296,1.087-5.694c0-18.682-6.931-35.265-6.931-37.563
		c0-1.398,2.989-1.099,5.571-1.099h10.328c2.99,0,9.377-1.798,9.377,47.552c0,37.463-4.077,35.564-7.475,35.564H2553.825z"/>
	<path fill="#01589A" d="M2625.853,438.464c-6.795,0-15.492,2.498-15.492,8.293c0,7.191,13.454,9.989,20.928,11.887
		c28.538,6.994,34.382,17.084,34.382,26.574c0,11.588-11.279,25.873-39.953,25.873c-19.297,0-38.866-7.592-38.866-23.477
		c0-8.49,6.931-13.486,8.29-13.486c2.31,0,0,20.28,29.217,20.28c10.328,0,19.297-3.297,19.297-9.491
		c0-7.292-12.23-10.289-20.112-12.087c-29.761-6.794-33.022-16.684-33.022-25.175c0-8.392,7.746-22.678,35.333-22.678
		c19.705,0,33.702,7.693,33.702,10.59c0,2.797-7.066,11.889-10.872,11.889C2645.285,447.457,2639.985,438.464,2625.853,438.464z"/>
	<path fill="#01589A" d="M2706.306,509.593c-2.582,0-8.562,3.996-8.562-24.975c0-22.277,5.979-36.463,5.979-40.16
		c0-2.996,0.679-4.795-2.719-4.795c-9.648,0-26.635,11.488-28.945,11.488c-1.223,0-1.902,0.4-1.902-2.397
		c0-3.097,3.669-15.484,5.708-18.281c1.358-1.898,19.704-5.495,38.05-5.495c21.879,0,41.313,4.297,41.313,8.992
		c0,4.395-6.659,13.885-8.154,13.885c-2.31,0-7.882-8.291-17.666-8.291c-8.289,0-9.648,19.08-9.648,28.271
		c0,25.674,7.475,38.262,7.475,40.06c0,2.198-4.893,1.698-6.659,1.698H2706.306z"/>
	<path fill="#01589A" d="M2771.129,509.593c-3.397,0-7.474,1.898-7.474-35.564c0-49.35,7.066-47.552,9.376-47.552h14.677
		c1.767,0,5.164-0.3,5.164,1.599c0,0.998-7.202,17.682-7.202,36.963c0,25.574,6.795,42.057,6.795,43.455c0,1-0.815,1.1-2.039,1.1
		h-2.718H2771.129z"/>
	<path fill="#01589A" d="M2835.816,509.593c-2.582,0-8.562,3.996-8.562-24.975c0-22.277,5.979-36.463,5.979-40.16
		c0-2.996,0.679-4.795-2.719-4.795c-9.648,0-26.635,11.488-28.945,11.488c-1.223,0-1.902,0.4-1.902-2.397
		c0-3.097,3.669-15.484,5.708-18.281c1.358-1.898,19.704-5.495,38.05-5.495c21.879,0,41.313,4.297,41.313,8.992
		c0,4.395-6.659,13.885-8.154,13.885c-2.31,0-7.882-8.291-17.666-8.291c-8.289,0-9.648,19.08-9.648,28.271
		c0,25.674,7.475,38.262,7.475,40.06c0,2.198-4.893,1.698-6.659,1.698H2835.816z"/>
	<path fill="#01589A" d="M2963.695,426.477c2.718,0,8.018,1.599,8.018,37.562c0,29.371-12.23,47.053-41.313,47.053
		c-25.548,0-41.176-14.484-41.176-44.355c0-31.967,5.164-40.259,6.931-40.259h18.89c1.358,0,2.989,0,2.989,1.299
		c0,2.298-6.795,12.887-6.795,35.864c0,22.677,11.144,29.67,19.161,29.67c6.795,0,21.472-1.299,21.472-28.672
		c0-25.974-6.658-35.064-6.658-36.862c0-1.599,3.94-1.299,5.163-1.299H2963.695z"/>
	<path fill="#01589A" d="M3012.348,509.593c-2.582,0-8.562,3.996-8.562-24.975c0-22.277,5.979-36.463,5.979-40.16
		c0-2.996,0.679-4.795-2.719-4.795c-9.648,0-26.635,11.488-28.945,11.488c-1.223,0-1.902,0.4-1.902-2.397
		c0-3.097,3.669-15.484,5.708-18.281c1.358-1.898,19.704-5.495,38.05-5.495c21.879,0,41.313,4.297,41.313,8.992
		c0,4.395-6.659,13.885-8.154,13.885c-2.31,0-7.882-8.291-17.666-8.291c-8.289,0-9.648,19.08-9.648,28.271
		c0,25.674,7.475,38.262,7.475,40.06c0,2.198-4.893,1.698-6.659,1.698H3012.348z"/>
	<path fill="#01589A" d="M3073.773,509.593c-7.202,0.199-5.027-3.297-5.707-23.576c0-13.387,7.474-59.54,11.415-59.54h53.542
		c1.631,0,6.523-0.3,6.523,1.698c0,0.799-8.697,14.785-10.464,14.785c-2.311,0-6.387-4.695-19.705-4.695
		c-9.376,0-19.297,4.096-19.297,13.686c0,2.099,0.544,5.695,4.349,5.695c4.349,0,13.997-4.695,25.412-4.695
		c1.631,0,6.115,0.399,6.115,2.098c0,0.1-7.609,16.383-9.24,16.383c-1.359,0-6.523-1.998-11.823-1.998
		c-6.931,0-16.986,3.697-16.986,13.587c0,7.992,5.707,13.786,17.122,13.786c13.454,0,21.743-6.594,25.005-6.594
		c2.038,0,11.144,16.883,11.144,17.883c0,1.897-3.397,1.498-5.028,1.498H3073.773z"/>
</g>
</svg>
